<svg width="21" height="20" viewBox="0 0 21 20" fill="none" xmlns="http://www.w3.org/2000/svg">
<path d="M19.5555 9.50001C19.5589 10.8199 19.256 12.1219 18.6715 13.3C17.9785 14.7118 16.913 15.8992 15.5945 16.7293C14.2761 17.5594 12.7566 17.9994 11.2064 18C9.90995 18.0034 8.63104 17.6951 7.47383 17.1L1.875 19L3.74128 13.3C3.15677 12.1219 2.85387 10.8199 2.85725 9.50001C2.85785 7.92177 3.29004 6.37487 4.10542 5.03257C4.92079 3.69027 6.08714 2.60559 7.47383 1.90003C8.63104 1.30496 9.90995 0.996587 11.2064 1.00003H11.6975C13.7449 1.11502 15.6786 1.99479 17.1285 3.47088C18.5784 4.94698 19.4426 6.91567 19.5555 9.00002V9.50001Z" stroke="#0466C8" stroke-width="2" stroke-linecap="round" stroke-linejoin="round"/>
</svg>
