<svg width="35" height="35" viewBox="0 0 35 35" fill="none" xmlns="http://www.w3.org/2000/svg">
<path opacity="0.4" d="M17.676 18.6376C17.5739 18.623 17.4427 18.623 17.326 18.6376C14.7593 18.5501 12.7177 16.4501 12.7177 13.8688C12.7177 11.2292 14.8468 9.08545 17.501 9.08545C20.1406 9.08545 22.2843 11.2292 22.2843 13.8688C22.2697 16.4501 20.2427 18.5501 17.676 18.6376Z" stroke="#0466C8" stroke-width="2" stroke-linecap="round" stroke-linejoin="round"/>
<path opacity="0.34" d="M27.3289 28.2626C24.7331 30.6397 21.2914 32.0835 17.4997 32.0835C13.708 32.0835 10.2664 30.6397 7.67053 28.2626C7.81637 26.8918 8.69137 25.5501 10.2518 24.5001C14.2476 21.846 20.781 21.846 24.7477 24.5001C26.3081 25.5501 27.1831 26.8918 27.3289 28.2626Z" stroke="#0466C8" stroke-width="2" stroke-linecap="round" stroke-linejoin="round"/>
<path d="M17.5 32.0834C25.554 32.0834 32.0833 25.5542 32.0833 17.5001C32.0833 9.44592 25.554 2.91675 17.5 2.91675C9.4458 2.91675 2.91663 9.44592 2.91663 17.5001C2.91663 25.5542 9.4458 32.0834 17.5 32.0834Z" stroke="#0466C8" stroke-width="2" stroke-linecap="round" stroke-linejoin="round"/>
</svg>
