<svg width="18" height="19" viewBox="0 0 18 19" fill="none" xmlns="http://www.w3.org/2000/svg">
<path d="M11.8565 6.82493V16.2916C11.8565 17.5 11.05 18.0083 10.0652 17.425L7.0176 15.6C6.69191 15.4083 6.16458 15.4083 5.83888 15.6L2.79132 17.425C1.80648 18.0083 1 17.5 1 16.2916V6.82493C1 5.39993 2.08564 4.23328 3.41168 4.23328H9.44479C10.7708 4.23328 11.8565 5.39993 11.8565 6.82493Z" stroke="#0466C8" stroke-width="2" stroke-linecap="round" stroke-linejoin="round"/>
<path opacity="0.4" d="M16.5091 3.59166V13.0583C16.5091 14.2667 15.7026 14.775 14.7177 14.1917L11.8563 12.475V6.82499C11.8563 5.39999 10.7706 4.23333 9.4446 4.23333H5.65259V3.59166C5.65259 2.16666 6.73823 1 8.06428 1H14.0974C15.4234 1 16.5091 2.16666 16.5091 3.59166Z" stroke="#0466C8" stroke-width="2" stroke-linecap="round" stroke-linejoin="round"/>
<g opacity="0.4">
<path d="M4.8772 9.33337H7.97905" stroke="#0466C8" stroke-width="2" stroke-linecap="round" stroke-linejoin="round"/>
<path d="M6.42822 11.0001V7.66675" stroke="#0466C8" stroke-width="2" stroke-linecap="round" stroke-linejoin="round"/>
</g>
</svg>
