<svg width="30" height="30" viewBox="0 0 30 30" fill="none" xmlns="http://www.w3.org/2000/svg">
<g clip-path="url(#clip0_65_125)">
<path d="M16.1125 7.34985H6.38749C4.24999 7.34985 2.5 9.09984 2.5 11.2373V25.4374C2.5 27.2499 3.8 28.0249 5.3875 27.1374L10.3 24.3999C10.825 24.1124 11.675 24.1124 12.1875 24.3999L17.1 27.1374C18.6875 28.0249 19.9875 27.2499 19.9875 25.4374V11.2373C20 9.09984 18.25 7.34985 16.1125 7.34985Z" stroke="#0466C8" stroke-width="3.75" stroke-linecap="round" stroke-linejoin="round"/>
<path d="M20 11.2373V25.4374C20 27.2499 18.7 28.0124 17.1125 27.1374L12.2 24.3999C11.675 24.1124 10.825 24.1124 10.3 24.3999L5.3875 27.1374C3.8 28.0124 2.5 27.2499 2.5 25.4374V11.2373C2.5 9.09984 4.24999 7.34985 6.38749 7.34985H16.1125C18.25 7.34985 20 9.09984 20 11.2373Z" stroke="#0466C8" stroke-width="3.75" stroke-linecap="round" stroke-linejoin="round"/>
<path opacity="0.4" d="M27.5 6.38749V20.5875C27.5 22.4 26.2 23.1625 24.6125 22.2875L20 19.7125V11.2375C20 9.09999 18.25 7.35 16.1125 7.35H10V6.38749C10 4.24999 11.75 2.5 13.8875 2.5H23.6125C25.75 2.5 27.5 4.24999 27.5 6.38749Z" stroke="#0466C8" stroke-width="3.75" stroke-linecap="round" stroke-linejoin="round"/>
</g>
<defs>
<clipPath id="clip0_65_125">
<rect width="30" height="30" fill="white"/>
</clipPath>
</defs>
</svg>
