<svg width="105" height="23" viewBox="0 0 105 23" fill="none" xmlns="http://www.w3.org/2000/svg">
<path d="M1.00214 23C0.338116 23 0.00610636 22.668 0.00610636 22.004C0.00610636 21.3399 0.338116 21.0079 1.00214 21.0079C5.42894 21.0079 8.47236 20.6759 10.1324 20.0119C10.9071 19.702 11.2944 19.3811 11.2944 19.0491C11.2944 18.7171 11.0178 18.4183 10.4644 18.1527C9.93321 17.887 9.02571 17.544 7.74194 17.1234C6.4803 16.7029 5.51747 16.3487 4.85345 16.061C1.62189 14.7108 0.00610636 12.6634 0.00610636 9.91881C0.00610636 8.12595 0.780796 6.62084 2.33018 5.40347C3.87956 4.16396 5.73881 3.54421 7.90795 3.54421C9.10318 3.54421 10.0992 3.89836 10.896 4.60665C11.715 5.31493 12.1245 6.16709 12.1245 7.16312C12.1245 8.15915 11.7371 9.04451 10.9624 9.8192C10.1877 10.5939 9.65653 10.9812 9.36879 10.9812C8.70477 10.9812 8.37276 10.6492 8.37276 9.98521C8.37276 9.69747 8.6605 9.26585 9.23598 8.69037C9.8336 8.09275 10.1324 7.639 10.1324 7.32913C10.1324 6.79791 9.92214 6.3663 9.50159 6.03429C9.10318 5.70228 8.58303 5.53627 7.94115 5.53627C6.30323 5.53627 4.89772 5.95682 3.72462 6.79791C2.57365 7.61687 1.99817 8.6129 1.99817 9.786C1.99817 10.9591 2.31911 11.8777 2.961 12.5417C3.62502 13.2057 4.3665 13.7148 5.18546 14.0689C6.02655 14.4009 6.86765 14.7108 7.70874 14.9986C8.54983 15.2642 9.24705 15.5076 9.8004 15.729C10.3759 15.9282 10.9514 16.1827 11.5269 16.4926C12.7 17.1345 13.2865 17.9756 13.2865 19.0159C13.2865 20.3661 12.3126 21.3732 10.3648 22.0372C8.43916 22.6791 5.31827 23 1.00214 23ZM17.2862 13.7037C17.9502 13.7037 18.2822 14.0357 18.2822 14.6997C18.2822 14.9654 18.2269 15.231 18.1162 15.4966C18.0055 15.7622 17.9502 16.0831 17.9502 16.4594C17.9502 16.8135 18.0609 17.1788 18.2822 17.555C18.5257 17.9313 18.8688 18.3408 19.3115 18.7835C19.7541 19.204 20.4182 19.5692 21.3035 19.8791C22.1889 20.189 23.0742 20.3439 23.9596 20.3439C24.8671 20.3439 25.6418 20.1115 26.2837 19.6467C26.9255 19.1819 27.2465 18.5289 27.2465 17.6878C27.2465 16.2934 26.9255 15.1756 26.2837 14.3345C25.6418 13.4713 24.7454 13.0397 23.5944 13.0397C23.0632 13.0397 22.5209 13.2057 21.9675 13.5377C21.4363 13.8697 21.0932 14.0357 20.9383 14.0357C20.2743 14.0357 19.9423 13.7037 19.9423 13.0397C19.9423 12.6192 20.3186 12.1875 21.0711 11.7449C21.8458 11.28 22.6869 11.0476 23.5944 11.0476C25.2766 11.0476 26.6378 11.6674 27.6781 12.9069C28.7184 14.1243 29.2386 15.7179 29.2386 17.6878C29.2386 19.1044 28.7073 20.2332 27.6449 21.0743C26.6046 21.9154 25.4868 22.336 24.2916 22.336C23.0964 22.336 22.0007 22.1921 21.0047 21.9044C20.0308 21.5945 19.2451 21.2182 18.6474 20.7755C18.0498 20.3107 17.5297 19.8127 17.087 19.2815C16.3344 18.3519 15.9582 17.4997 15.9582 16.725C15.9582 15.9282 16.0799 15.231 16.3234 14.6333C16.5668 14.0136 16.8878 13.7037 17.2862 13.7037ZM54.1549 6.5323C54.509 6.5323 54.8742 6.69831 55.2505 7.03032C55.6268 7.34019 55.8149 7.6722 55.8149 8.02635C55.8149 8.35836 55.671 8.6129 55.3833 8.78997C55.1177 8.96704 54.8078 9.05558 54.4537 9.05558C54.0995 9.05558 53.7897 8.90064 53.524 8.59077C53.2806 8.25876 53.1588 7.90461 53.1588 7.52833C53.1588 6.86431 53.4908 6.5323 54.1549 6.5323ZM38.2184 20.0119C39.7678 20.0119 41.3946 19.7684 43.0989 19.2815C44.8254 18.7724 46.4412 18.2744 47.9463 17.7874C49.4514 17.2784 50.7462 17.0238 51.8308 17.0238C53.1367 17.0238 54.1327 17.876 54.8189 19.5803C54.8189 19.6688 54.8521 19.7795 54.9185 19.9123C55.007 20.023 55.0734 20.1336 55.1177 20.2443C55.162 20.3329 55.2062 20.3882 55.2505 20.4103C55.3169 20.4546 55.3722 20.4989 55.4165 20.5431C55.5272 20.6317 55.7264 20.6759 56.0141 20.6759C56.3019 20.6759 56.7777 20.5653 57.4418 20.3439C58.1058 20.1226 58.471 20.0119 58.5374 20.0119C59.2014 20.0119 59.5334 20.3439 59.5334 21.0079C59.5334 21.4949 59.2014 21.849 58.5374 22.0704C57.3422 22.4688 56.4347 22.668 55.8149 22.668C54.5754 22.668 53.6347 21.8933 52.9928 20.3439C52.9707 20.3218 52.9375 20.2443 52.8932 20.1115C52.849 19.9787 52.8047 19.868 52.7604 19.7795C52.7162 19.691 52.683 19.6356 52.6608 19.6135C52.6387 19.5692 52.6055 19.5139 52.5612 19.4475C52.5391 19.3811 52.5059 19.3368 52.4616 19.3147C52.4395 19.2704 52.3952 19.2262 52.3288 19.1819C52.2845 19.1376 52.2403 19.1044 52.196 19.0823C52.1075 19.038 51.9857 19.0159 51.8308 19.0159C50.8126 19.0159 49.5731 19.2704 48.1123 19.7795C46.6514 20.2665 45.0467 20.7645 43.2981 21.2735C41.5717 21.7605 39.9559 22.004 38.4508 22.004C36.9457 22.004 35.6951 21.5613 34.6991 20.6759C33.7252 19.7906 33.2382 18.6949 33.2382 17.389C33.2382 15.4634 33.8469 13.9251 35.0643 12.7741C36.3038 11.6231 37.7978 11.0476 39.5464 11.0476C40.3211 11.0476 41.1179 11.2026 41.9369 11.5125C42.778 11.8223 43.1985 12.2207 43.1985 12.7077C43.1985 12.9733 43.0989 13.2057 42.8997 13.4049C42.7005 13.6041 42.4681 13.7037 42.2025 13.7037C41.9369 13.7037 41.5828 13.593 41.1401 13.3717C40.7195 13.1504 40.1883 13.0397 39.5464 13.0397C38.3291 13.0397 37.2998 13.4381 36.4587 14.2349C35.6398 15.0096 35.2303 16.0499 35.2303 17.3558C35.2303 18.1969 35.5402 18.8499 36.1599 19.3147C36.7797 19.7795 37.4658 20.0119 38.2184 20.0119ZM73.4063 20.2775C73.4063 20.2775 73.7604 20.189 74.4687 20.0119C75.1327 20.0119 75.4647 20.3439 75.4647 21.0079C75.4647 21.4949 75.1327 21.849 74.4687 22.0704C74.0703 22.2032 73.6719 22.2696 73.2735 22.2696C72.8972 22.2696 72.532 22.181 72.1778 22.004C71.8237 21.8269 71.547 21.5613 71.3478 21.2071C71.0158 20.6317 70.7723 20.0119 70.6174 19.3479L70.4846 18.7835C70.1083 19.4254 69.1897 20.1779 67.7289 21.0411C66.2902 21.9044 64.7519 22.336 63.1139 22.336C62.2286 22.336 61.4539 22.004 60.7899 21.3399C60.1259 20.6759 59.7938 19.9012 59.7938 19.0159C59.7938 16.8689 60.6792 15.0096 62.4499 13.4381C64.2206 11.8445 66.0135 11.0476 67.8285 11.0476C68.8245 11.0476 69.6767 11.2358 70.385 11.6121C71.1154 11.9662 71.4806 12.3314 71.4806 12.7077C71.4806 13.3717 71.1486 13.7037 70.4846 13.7037C70.3518 13.7037 70.0308 13.593 69.5217 13.3717C69.0127 13.1504 68.4482 13.0397 67.8285 13.0397C66.6333 13.0397 65.3273 13.6263 63.9108 14.7994C62.4942 15.9503 61.7859 17.3558 61.7859 19.0159C61.7859 19.3479 61.9187 19.6578 62.1843 19.9455C62.4721 20.2111 62.7819 20.3439 63.1139 20.3439C64.4199 20.3439 65.6372 20.0008 66.7661 19.3147C67.8949 18.6064 68.6142 18.0309 68.9241 17.5882C69.234 17.1234 69.4885 16.7029 69.6877 16.3266C69.8869 15.9503 70.0308 15.7068 70.1194 15.5962C70.23 15.4634 70.4514 15.397 70.7834 15.397C71.1154 15.397 71.3699 15.5187 71.547 15.7622C71.7241 16.0057 71.8901 16.393 72.045 16.9242C72.2 17.4333 72.3549 18.0088 72.5098 18.6507C72.6648 19.2926 72.7976 19.7242 72.9082 19.9455C73.041 20.1668 73.207 20.2775 73.4063 20.2775ZM86.0382 23C83.9133 23 82.1315 21.4064 80.6928 18.2191C79.896 18.8609 78.8889 19.5692 77.6715 20.3439C76.4542 21.1186 75.6574 21.5945 75.2811 21.7716C74.9048 21.9265 74.5949 22.004 74.3514 22.004C73.6874 22.004 73.3554 21.672 73.3554 21.0079C73.3554 20.5874 73.6874 20.2443 74.3514 19.9787C74.7277 19.8238 75.5135 19.359 76.7087 18.5843C77.9261 17.7874 78.9553 17.046 79.7964 16.3598C79.3095 14.7662 79.066 12.9954 79.066 11.0476C79.066 8.10382 79.6083 5.55841 80.6928 3.41141C81.7995 1.24228 83.028 0.157711 84.3781 0.157711C84.9536 0.157711 85.4516 0.334783 85.8722 0.688926C86.2927 1.04307 86.6026 1.48575 86.8018 2.01697C87.1781 3.03513 87.3662 4.14183 87.3662 5.33707C87.3662 6.5323 87.2334 7.74967 86.9678 8.98918C86.7022 10.2065 86.3813 11.2358 86.005 12.0769C85.6509 12.918 85.2192 13.7037 84.7102 14.4341C83.9576 15.5187 83.1718 16.393 82.3529 17.057C83.5481 19.691 84.7766 21.0079 86.0382 21.0079C86.9014 21.0079 87.8311 20.8419 88.8271 20.5099C89.8231 20.1779 90.3543 20.0119 90.4207 20.0119C91.0847 20.0119 91.4168 20.3439 91.4168 21.0079C91.4168 21.4949 91.0847 21.849 90.4207 22.0704C88.5615 22.6901 87.1006 23 86.0382 23ZM84.3781 2.14977C84.0019 2.14977 83.5149 2.61459 82.9173 3.54421C81.6778 5.49201 81.058 7.99315 81.058 11.0476C81.058 12.597 81.2241 13.9583 81.5561 15.1314C82.2865 14.4452 82.9616 13.5598 83.5813 12.4753C84.7766 10.3947 85.3742 7.92675 85.3742 5.07146C85.3742 4.42957 85.2856 3.78769 85.1086 3.1458C84.9315 2.48178 84.688 2.14977 84.3781 2.14977ZM93.358 23C92.694 23 92.3619 22.668 92.3619 22.004C92.3619 21.6498 92.4173 21.351 92.528 21.1075C93.3912 19.1819 94.9406 16.4373 97.1761 12.8737C97.0433 12.6524 96.2133 11.4461 94.686 9.25478C93.1366 7.08565 92.2513 5.82402 92.0299 5.46987C91.8086 5.11573 91.6979 4.80585 91.6979 4.54024C91.6979 3.87622 92.0299 3.54421 92.694 3.54421C92.9817 3.54421 93.369 3.90942 93.856 4.63985C94.0109 4.86119 94.7635 5.93468 96.1137 7.86034C97.4638 9.76387 98.2053 10.8263 98.3381 11.0476L101.658 5.73548C102.123 4.93865 102.566 4.54024 102.986 4.54024C103.65 4.54024 103.982 4.86119 103.982 5.50307C103.982 5.72441 103.805 6.10069 103.451 6.63191L99.5998 12.8405C99.7547 13.0618 100.574 14.2349 102.057 16.3598C103.562 18.4847 104.425 19.7242 104.646 20.0783C104.868 20.4325 104.978 20.7423 104.978 21.0079C104.978 21.672 104.646 22.004 103.982 22.004C103.717 22.004 103.363 21.672 102.92 21.0079C102.765 20.7866 102.012 19.7352 100.662 17.8538C99.312 15.9503 98.5705 14.8879 98.4377 14.6665C96.1137 18.4515 94.7524 20.8973 94.354 22.004C94.1105 22.668 93.7785 23 93.358 23Z" fill="white"/>
</svg>
