<svg width="24" height="22" viewBox="0 0 24 22" fill="none" xmlns="http://www.w3.org/2000/svg">
<path d="M11.3326 11.0033H3.43954M3.21581 12.038L1.91177 15.9334C1.19756 18.0668 0.840451 19.1335 1.09673 19.7904C1.31927 20.3609 1.79726 20.7933 2.38708 20.958C3.06626 21.1475 4.09209 20.6859 6.14375 19.7627L19.2968 13.8438C21.2994 12.9426 22.3007 12.4921 22.6101 11.8661C22.879 11.3223 22.879 10.6842 22.6101 10.1404C22.3007 9.51453 21.2994 9.06391 19.2968 8.16274L6.12107 2.23368C4.07558 1.31323 3.05285 0.852991 2.37434 1.04179C1.78509 1.20575 1.30715 1.63709 1.08383 2.20651C0.826668 2.86217 1.17996 3.92659 1.88655 6.05542L3.21834 10.0679C3.33969 10.4335 3.40038 10.6164 3.42433 10.8033C3.44559 10.9693 3.44537 11.1372 3.42369 11.3031C3.39925 11.49 3.33811 11.6726 3.21581 12.038Z" stroke="white" stroke-width="2" stroke-linecap="round" stroke-linejoin="round"/>
</svg>
