<svg xmlns="http://www.w3.org/2000/svg" viewBox="0 0 83 141.64"><defs><style>.cls-1{fill:#fff;}</style></defs><g id="Layer_2" data-name="Layer 2"><g id="Layer_3" data-name="Layer 3"><path class="cls-1" d="M5.87,36.54,46.86,0l34.8,38a5.06,5.06,0,0,1-.15,7L68.46,58A5.07,5.07,0,0,1,61.24,58l-5.55-5.74a5.07,5.07,0,0,1,0-7.06L57.76,43a5.08,5.08,0,0,0-.26-7.32l-7.63-6.79A5.07,5.07,0,0,0,43,29l-8.69,8.23a5.06,5.06,0,0,0-.21,7.14L63.69,76A5.06,5.06,0,0,1,63.54,83l-7.32,7.19A5.07,5.07,0,0,1,49,90.09L5.55,43.79A5.07,5.07,0,0,1,5.87,36.54Z"/><path class="cls-1" d="M1.54,90.35l14.9-11.77a4.06,4.06,0,0,1,5.44.36l7.22,7.47a4.06,4.06,0,0,1-.15,5.8l-1.22,1.13a4.07,4.07,0,0,0-.12,5.84l10.82,10.94a4.06,4.06,0,0,0,5.76,0l24-23.91a4.07,4.07,0,0,1,5.7,0l7.62,7.36a4.07,4.07,0,0,1,.11,5.74L40.83,141.64,1,96.22A4.07,4.07,0,0,1,1.54,90.35Z"/></g></g></svg>