<svg width="111" height="25" viewBox="0 0 111 25" fill="none" xmlns="http://www.w3.org/2000/svg">
<path d="M1.21172 25C0.511719 25 0.161719 24.65 0.161719 23.95C0.161719 23.25 0.511719 22.9 1.21172 22.9C5.87839 22.9 9.08672 22.55 10.8367 21.85C11.6534 21.5233 12.0617 21.185 12.0617 20.835C12.0617 20.485 11.7701 20.17 11.1867 19.89C10.6267 19.61 9.67005 19.2483 8.31672 18.805C6.98672 18.3617 5.97172 17.9883 5.27172 17.685C1.86505 16.2617 0.161719 14.1033 0.161719 11.21C0.161719 9.32 0.978386 7.73333 2.61172 6.45C4.24505 5.14333 6.20505 4.49 8.49172 4.49C9.75172 4.49 10.8017 4.86333 11.6417 5.61C12.5051 6.35667 12.9367 7.255 12.9367 8.305C12.9367 9.355 12.5284 10.2883 11.7117 11.105C10.8951 11.9217 10.3351 12.33 10.0317 12.33C9.33172 12.33 8.98172 11.98 8.98172 11.28C8.98172 10.9767 9.28505 10.5217 9.89172 9.915C10.5217 9.285 10.8367 8.80667 10.8367 8.48C10.8367 7.92 10.6151 7.465 10.1717 7.115C9.75172 6.765 9.20339 6.59 8.52672 6.59C6.80005 6.59 5.31839 7.03333 4.08172 7.92C2.86839 8.78333 2.26172 9.83333 2.26172 11.07C2.26172 12.3067 2.60005 13.275 3.27672 13.975C3.97672 14.675 4.75839 15.2117 5.62172 15.585C6.50839 15.935 7.39505 16.2617 8.28172 16.565C9.16839 16.845 9.90339 17.1017 10.4867 17.335C11.0934 17.545 11.7001 17.8133 12.3067 18.14C13.5434 18.8167 14.1617 19.7033 14.1617 20.8C14.1617 22.2233 13.1351 23.285 11.0817 23.985C9.05172 24.6617 5.76172 25 1.21172 25ZM18.3781 15.2C19.0781 15.2 19.4281 15.55 19.4281 16.25C19.4281 16.53 19.3698 16.81 19.2531 17.09C19.1365 17.37 19.0781 17.7083 19.0781 18.105C19.0781 18.4783 19.1948 18.8633 19.4281 19.26C19.6848 19.6567 20.0465 20.0883 20.5131 20.555C20.9798 20.9983 21.6798 21.3833 22.6131 21.71C23.5465 22.0367 24.4798 22.2 25.4131 22.2C26.3698 22.2 27.1865 21.955 27.8631 21.465C28.5398 20.975 28.8781 20.2867 28.8781 19.4C28.8781 17.93 28.5398 16.7517 27.8631 15.865C27.1865 14.955 26.2415 14.5 25.0281 14.5C24.4681 14.5 23.8965 14.675 23.3131 15.025C22.7531 15.375 22.3915 15.55 22.2281 15.55C21.5281 15.55 21.1781 15.2 21.1781 14.5C21.1781 14.0567 21.5748 13.6017 22.3681 13.135C23.1848 12.645 24.0715 12.4 25.0281 12.4C26.8015 12.4 28.2365 13.0533 29.3331 14.36C30.4298 15.6433 30.9781 17.3233 30.9781 19.4C30.9781 20.8933 30.4181 22.0833 29.2981 22.97C28.2015 23.8567 27.0231 24.3 25.7631 24.3C24.5031 24.3 23.3481 24.1483 22.2981 23.845C21.2715 23.5183 20.4431 23.1217 19.8131 22.655C19.1831 22.165 18.6348 21.64 18.1681 21.08C17.3748 20.1 16.9781 19.2017 16.9781 18.385C16.9781 17.545 17.1065 16.81 17.3631 16.18C17.6198 15.5267 17.9581 15.2 18.3781 15.2ZM57.2445 7.64C57.6179 7.64 58.0029 7.815 58.3995 8.165C58.7962 8.49167 58.9945 8.84167 58.9945 9.215C58.9945 9.565 58.8429 9.83333 58.5395 10.02C58.2595 10.2067 57.9329 10.3 57.5595 10.3C57.1862 10.3 56.8595 10.1367 56.5795 9.81C56.3229 9.46 56.1945 9.08667 56.1945 8.69C56.1945 7.99 56.5445 7.64 57.2445 7.64ZM40.4445 21.85C42.0779 21.85 43.7929 21.5933 45.5895 21.08C47.4095 20.5433 49.1129 20.0183 50.6995 19.505C52.2862 18.9683 53.6512 18.7 54.7945 18.7C56.1712 18.7 57.2212 19.5983 57.9445 21.395C57.9445 21.4883 57.9795 21.605 58.0495 21.745C58.1429 21.8617 58.2129 21.9783 58.2595 22.095C58.3062 22.1883 58.3529 22.2467 58.3995 22.27C58.4695 22.3167 58.5279 22.3633 58.5745 22.41C58.6912 22.5033 58.9012 22.55 59.2045 22.55C59.5079 22.55 60.0095 22.4333 60.7095 22.2C61.4095 21.9667 61.7945 21.85 61.8645 21.85C62.5645 21.85 62.9145 22.2 62.9145 22.9C62.9145 23.4133 62.5645 23.7867 61.8645 24.02C60.6045 24.44 59.6479 24.65 58.9945 24.65C57.6879 24.65 56.6962 23.8333 56.0195 22.2C55.9962 22.1767 55.9612 22.095 55.9145 21.955C55.8679 21.815 55.8212 21.6983 55.7745 21.605C55.7279 21.5117 55.6929 21.4533 55.6695 21.43C55.6462 21.3833 55.6112 21.325 55.5645 21.255C55.5412 21.185 55.5062 21.1383 55.4595 21.115C55.4362 21.0683 55.3895 21.0217 55.3195 20.975C55.2729 20.9283 55.2262 20.8933 55.1795 20.87C55.0862 20.8233 54.9579 20.8 54.7945 20.8C53.7212 20.8 52.4145 21.0683 50.8745 21.605C49.3345 22.1183 47.6429 22.6433 45.7995 23.18C43.9795 23.6933 42.2762 23.95 40.6895 23.95C39.1029 23.95 37.7845 23.4833 36.7345 22.55C35.7079 21.6167 35.1945 20.4617 35.1945 19.085C35.1945 17.055 35.8362 15.4333 37.1195 14.22C38.4262 13.0067 40.0012 12.4 41.8445 12.4C42.6612 12.4 43.5012 12.5633 44.3645 12.89C45.2512 13.2167 45.6945 13.6367 45.6945 14.15C45.6945 14.43 45.5895 14.675 45.3795 14.885C45.1695 15.095 44.9245 15.2 44.6445 15.2C44.3645 15.2 43.9912 15.0833 43.5245 14.85C43.0812 14.6167 42.5212 14.5 41.8445 14.5C40.5612 14.5 39.4762 14.92 38.5895 15.76C37.7262 16.5767 37.2945 17.6733 37.2945 19.05C37.2945 19.9367 37.6212 20.625 38.2745 21.115C38.9279 21.605 39.6512 21.85 40.4445 21.85ZM77.5391 22.13C77.5391 22.13 77.9124 22.0367 78.6591 21.85C79.3591 21.85 79.7091 22.2 79.7091 22.9C79.7091 23.4133 79.3591 23.7867 78.6591 24.02C78.2391 24.16 77.8191 24.23 77.3991 24.23C77.0024 24.23 76.6174 24.1367 76.2441 23.95C75.8707 23.7633 75.5791 23.4833 75.3691 23.11C75.0191 22.5033 74.7624 21.85 74.5991 21.15L74.4591 20.555C74.0624 21.2317 73.0941 22.025 71.5541 22.935C70.0374 23.845 68.4157 24.3 66.6891 24.3C65.7557 24.3 64.9391 23.95 64.2391 23.25C63.5391 22.55 63.1891 21.7333 63.1891 20.8C63.1891 18.5367 64.1224 16.5767 65.9891 14.92C67.8557 13.24 69.7457 12.4 71.6591 12.4C72.7091 12.4 73.6074 12.5983 74.3541 12.995C75.1241 13.3683 75.5091 13.7533 75.5091 14.15C75.5091 14.85 75.1591 15.2 74.4591 15.2C74.3191 15.2 73.9807 15.0833 73.4441 14.85C72.9074 14.6167 72.3124 14.5 71.6591 14.5C70.3991 14.5 69.0224 15.1183 67.5291 16.355C66.0357 17.5683 65.2891 19.05 65.2891 20.8C65.2891 21.15 65.4291 21.4767 65.7091 21.78C66.0124 22.06 66.3391 22.2 66.6891 22.2C68.0657 22.2 69.3491 21.8383 70.5391 21.115C71.7291 20.3683 72.4874 19.7617 72.8141 19.295C73.1407 18.805 73.4091 18.3617 73.6191 17.965C73.8291 17.5683 73.9807 17.3117 74.0741 17.195C74.1907 17.055 74.4241 16.985 74.7741 16.985C75.1241 16.985 75.3924 17.1133 75.5791 17.37C75.7657 17.6267 75.9407 18.035 76.1041 18.595C76.2674 19.1317 76.4307 19.7383 76.5941 20.415C76.7574 21.0917 76.8974 21.5467 77.0141 21.78C77.1541 22.0133 77.3291 22.13 77.5391 22.13ZM90.8555 25C88.6155 25 86.7371 23.32 85.2205 19.96C84.3805 20.6367 83.3188 21.3833 82.0355 22.2C80.7521 23.0167 79.9121 23.5183 79.5155 23.705C79.1188 23.8683 78.7921 23.95 78.5355 23.95C77.8355 23.95 77.4855 23.6 77.4855 22.9C77.4855 22.4567 77.8355 22.095 78.5355 21.815C78.9321 21.6517 79.7605 21.1617 81.0205 20.345C82.3038 19.505 83.3888 18.7233 84.2755 18C83.7621 16.32 83.5055 14.4533 83.5055 12.4C83.5055 9.29667 84.0771 6.61333 85.2205 4.35C86.3871 2.06333 87.6821 0.919999 89.1055 0.919999C89.7121 0.919999 90.2371 1.10667 90.6805 1.48C91.1238 1.85333 91.4505 2.32 91.6605 2.88C92.0571 3.95333 92.2555 5.12 92.2555 6.38C92.2555 7.64 92.1155 8.92333 91.8355 10.23C91.5555 11.5133 91.2171 12.5983 90.8205 13.485C90.4471 14.3717 89.9921 15.2 89.4555 15.97C88.6621 17.1133 87.8338 18.035 86.9705 18.735C88.2305 21.5117 89.5255 22.9 90.8555 22.9C91.7655 22.9 92.7455 22.725 93.7955 22.375C94.8455 22.025 95.4055 21.85 95.4755 21.85C96.1755 21.85 96.5255 22.2 96.5255 22.9C96.5255 23.4133 96.1755 23.7867 95.4755 24.02C93.5155 24.6733 91.9755 25 90.8555 25ZM89.1055 3.02C88.7088 3.02 88.1955 3.51 87.5655 4.49C86.2588 6.54333 85.6055 9.18 85.6055 12.4C85.6055 14.0333 85.7805 15.4683 86.1305 16.705C86.9005 15.9817 87.6121 15.0483 88.2655 13.905C89.5255 11.7117 90.1555 9.11 90.1555 6.1C90.1555 5.42333 90.0621 4.74667 89.8755 4.07C89.6888 3.37 89.4321 3.02 89.1055 3.02ZM98.5719 25C97.8719 25 97.5219 24.65 97.5219 23.95C97.5219 23.5767 97.5802 23.2617 97.6969 23.005C98.6069 20.975 100.24 18.0817 102.597 14.325C102.457 14.0917 101.582 12.82 99.9719 10.51C98.3385 8.22333 97.4052 6.89333 97.1719 6.52C96.9385 6.14667 96.8219 5.82 96.8219 5.54C96.8219 4.84 97.1719 4.49 97.8719 4.49C98.1752 4.49 98.5835 4.875 99.0969 5.645C99.2602 5.87833 100.054 7.01 101.477 9.04C102.9 11.0467 103.682 12.1667 103.822 12.4L107.322 6.8C107.812 5.96 108.279 5.54 108.722 5.54C109.422 5.54 109.772 5.87833 109.772 6.555C109.772 6.78833 109.585 7.185 109.212 7.745L105.152 14.29C105.315 14.5233 106.179 15.76 107.742 18C109.329 20.24 110.239 21.5467 110.472 21.92C110.705 22.2933 110.822 22.62 110.822 22.9C110.822 23.6 110.472 23.95 109.772 23.95C109.492 23.95 109.119 23.6 108.652 22.9C108.489 22.6667 107.695 21.5583 106.272 19.575C104.849 17.5683 104.067 16.4483 103.927 16.215C101.477 20.205 100.042 22.7833 99.6219 23.95C99.3652 24.65 99.0152 25 98.5719 25Z" fill="white"/>
</svg>
