<svg width="35" height="35" viewBox="0 0 35 35" fill="none" xmlns="http://www.w3.org/2000/svg">
<path d="M32.0834 17.7974V20.0156C32.0834 25.7043 32.0834 28.5488 30.3748 30.316C28.6664 32.0833 25.9164 32.0833 20.4167 32.0833H14.5834C9.08369 32.0833 6.33384 32.0833 4.62529 30.316C2.91675 28.5488 2.91675 25.7043 2.91675 20.0156V17.7974C2.91675 14.4601 2.91675 12.7914 3.67391 11.4082C4.43108 10.0249 5.81438 9.16637 8.58096 7.44936L11.4976 5.63919C14.4221 3.82417 15.8844 2.91667 17.5001 2.91667C19.1158 2.91667 20.578 3.82417 23.5026 5.63919L26.4192 7.44934C29.1858 9.16637 30.5691 10.0249 31.3262 11.4082" stroke="#0466C8" stroke-width="2" stroke-linecap="round"/>
<path d="M21.875 26.25H13.125" stroke="#0466C8" stroke-width="2" stroke-linecap="round"/>
</svg>
