<svg width="111" height="111" viewBox="0 0 111 111" fill="none" xmlns="http://www.w3.org/2000/svg">
<path d="M65.9742 73.7119L58.0313 65.835C54.3808 62.215 52.5553 60.4048 50.4537 59.7259C48.6051 59.1283 46.6154 59.1283 44.7664 59.7259C42.6649 60.4048 40.8395 62.215 37.1888 65.835L18.6939 84.4627M65.9742 73.7119L67.5527 72.1458C71.2805 68.4495 73.1439 66.6014 75.2825 65.9271C77.163 65.3337 79.1837 65.3568 81.0504 65.9932C83.1723 66.717 84.9932 68.6072 88.6344 72.3882L92.5 76.313M65.9742 73.7119L84.2675 92.3279M18.6939 84.4627C18.836 85.667 19.082 86.6128 19.5082 87.4495C20.395 89.1899 21.8101 90.6051 23.5506 91.4917C25.5293 92.5 28.1195 92.5 33.3 92.5H77.7C80.5735 92.5 82.6501 92.5 84.2675 92.3279M18.6939 84.4627C18.5 82.818 18.5 80.6905 18.5 77.7V33.3C18.5 28.1195 18.5 25.5293 19.5082 23.5506C20.395 21.8101 21.8101 20.395 23.5506 19.5082C25.5293 18.5 28.1195 18.5 33.3 18.5H50.875M84.2675 92.3279C85.5657 92.1897 86.5684 91.9408 87.4495 91.4917C89.1899 90.6051 90.6051 89.1899 91.4917 87.4495C92.5 85.4709 92.5 82.8805 92.5 77.7V60.125M83.25 41.625V27.75M83.25 27.75V13.875M83.25 27.75H97.125M83.25 27.75H69.375" stroke="#0466C8" stroke-width="3" stroke-linecap="round" stroke-linejoin="round"/>
</svg>
