<svg width="41" height="51" viewBox="0 0 41 51" fill="none" xmlns="http://www.w3.org/2000/svg">
<path d="M3 48V5.25005C3 5.25005 5.1875 3 11.75 3C18.3125 3 22.6875 7.5 29.25 7.5C35.8125 7.5 38 5.25 38 5.25V32.25C38 32.25 35.8125 34.5 29.25 34.5C22.6875 34.5 18.3125 30 11.75 30C5.1875 30 3 32.25 3 32.25" fill="#0466C8"/>
<path d="M3 48V5.25005C3 5.25005 5.1875 3 11.75 3C18.3125 3 22.6875 7.5 29.25 7.5C35.8125 7.5 38 5.25 38 5.25V32.25C38 32.25 35.8125 34.5 29.25 34.5C22.6875 34.5 18.3125 30 11.75 30C5.1875 30 3 32.25 3 32.25" stroke="#0466C8" stroke-width="5" stroke-linecap="round" stroke-linejoin="round"/>
</svg>
