<svg width="22" height="20" viewBox="0 0 22 20" fill="none" xmlns="http://www.w3.org/2000/svg">
<path d="M19.0348 2.59133C18.5573 2.08683 17.9904 1.68663 17.3664 1.41358C16.7424 1.14054 16.0736 1 15.3982 1C14.7228 1 14.0539 1.14054 13.43 1.41358C12.806 1.68663 12.239 2.08683 11.7615 2.59133L10.7706 3.63785L9.77962 2.59133C8.81513 1.57276 7.50699 1.00053 6.14298 1.00053C4.77898 1.00053 3.47084 1.57276 2.50635 2.59133C1.54185 3.6099 1 4.99139 1 6.43187C1 7.87235 1.54185 9.25383 2.50635 10.2724L3.49731 11.3189L10.7706 19L18.0439 11.3189L19.0348 10.2724C19.5125 9.76814 19.8915 9.16942 20.15 8.51045C20.4086 7.85148 20.5417 7.14517 20.5417 6.43187C20.5417 5.71857 20.4086 5.01225 20.15 4.35328C19.8915 3.69431 19.5125 3.09559 19.0348 2.59133Z" stroke="#0466C8" stroke-width="2" stroke-linecap="round" stroke-linejoin="round"/>
</svg>
